<svg xmlns="http://www.w3.org/2000/svg" viewBox="0 0 800 600"><defs><style>.cls-1{fill:#1F2D51;}.cls-2,.cls-3,.cls-4{fill:none;stroke:#fee715;stroke-miterlimit:10;}.cls-2,.cls-3{stroke-linecap:round;}.cls-2{stroke-width:12.08px;}.cls-3{stroke-width:13px;}.cls-4{stroke-width:6px;}</style></defs><g id="Layer_2" data-name="Layer 2"><g id="Layer_1-2" data-name="Layer 1"><rect class="cls-1" width="800" height="600"/><path class="cls-2" d="M206.89,211.86s17.23-36.8,64.59-18.4,83.25,35.39,101.91,36.8,44.5,1.42,53.11-5.66C419.33,196.29,227,286.88,191.1,373.22c-15.79,53.79,74.78,40.92,93.3,22.65"/><path class="cls-2" d="M201.15,312.36s25.84-46.71,56-5.66c20.09,28.31,51.93,5.66,51.93,5.66"/><path class="cls-3" d="M336.24,376.24s195.21-6.55,235.4-6.55,64.12-62-3.11-58.86-117.46,32.66-106,58.86"/><path class="cls-3" d="M393.23,373.75V304.6c-2.45,18.83-105.25,90.06-111,93.33"/><line class="cls-3" x1="484.08" y1="332.03" x2="462.55" y2="271.43"/><path class="cls-4" d="M148,183.27V416.73a50.14,50.14,0,0,0,25,43.39L374.92,576.79a50.11,50.11,0,0,0,50.16,0L626.93,460.12a50.14,50.14,0,0,0,25-43.39V183.27a50.14,50.14,0,0,0-25-43.39L425.08,23.21a50.11,50.11,0,0,0-50.16,0L173.07,139.88A50.14,50.14,0,0,0,148,183.27Z"/></g></g></svg>